<svg xmlns="http://www.w3.org/2000/svg" viewBox="0 0 128.471 50" width="250"><g aria-label="Conseils Citoyens" style="font-style:normal;font-variant:normal;font-weight:400;font-stretch:normal;font-size:14.1111px;line-height:1.25;font-family:COCOGOOSE;-inkscape-font-specification:'COCOGOOSE Normal';font-variant-ligatures:normal;font-variant-caps:normal;font-variant-numeric:normal;font-variant-east-asian:normal;fill:#000;fill-opacity:1;stroke:none;stroke-width:.264583"><path d="M45.285 38.912q.148.1.148.22 0 .077-.057.147l-.19.24q-.05.057-.099.092-.042.035-.099.035-.106 0-.282-.127-.614-.444-1.298-.691-.678-.254-1.418-.254-.65 0-1.242.17-.593.168-1.108.479-.508.303-.924.727-.416.423-.713.93-.296.509-.458 1.08-.163.572-.163 1.172 0 .606.17 1.192.176.579.48 1.094.31.508.733.938.424.423.925.734.5.31 1.065.487.564.169 1.157.169.36 0 .74-.07.389-.071.763-.205t.727-.325q.36-.197.656-.444.084-.064.176-.064.148 0 .261.177l.106.169q.05.085.05.176 0 .156-.142.261-.691.53-1.524.826-.832.29-1.778.29-.733 0-1.425-.191-.684-.19-1.284-.544-.593-.352-1.087-.84-.493-.493-.846-1.093-.346-.607-.544-1.298-.19-.691-.19-1.44 0-.733.19-1.418.191-.691.544-1.284.353-.6.84-1.086.493-.494 1.093-.84.607-.353 1.298-.543.692-.198 1.44-.198.91 0 1.763.304.854.296 1.546.846zM46.921 43.929q0-.635.162-1.228.17-.592.473-1.107.303-.516.727-.939.423-.423.938-.727.515-.303 1.1-.465.593-.17 1.228-.17t1.221.17q.593.162 1.108.465.515.304.938.727.43.423.734.939.303.515.466 1.107.169.593.169 1.228t-.17 1.228q-.162.592-.465 1.107-.303.515-.734.939-.423.423-.938.726-.515.304-1.108.466-.586.17-1.22.17-.636 0-1.228-.17-.586-.162-1.1-.466-.516-.303-.94-.726-.423-.424-.726-.939-.303-.515-.473-1.107-.162-.593-.162-1.228Zm.847 0q0 .515.134 1.002.134.48.374.91.247.423.585.783.346.353.762.607.424.254.896.395.48.141 1.002.141.783 0 1.475-.296.698-.304 1.22-.819.523-.522.826-1.213.303-.699.303-1.496 0-.776-.296-1.475-.296-.705-.811-1.234-.508-.53-1.2-.84-.684-.317-1.467-.317-.784 0-1.482.31-.691.303-1.207.833-.515.529-.818 1.227-.296.699-.296 1.482zM58.048 39.724q0-.127.07-.19.078-.071.198-.071h.29q.127 0 .19.077.07.07.07.184v1.037q.304-.459.685-.748.381-.296.783-.459.402-.169.79-.225.396-.064.727-.064.812 0 1.482.297.67.296 1.143.81.473.516.734 1.2.26.685.26 1.46v5.039q0 .155-.077.232-.078.078-.205.078h-.26q-.163 0-.22-.07-.056-.071-.056-.233v-5.066q-.02-.55-.218-1.073-.198-.529-.558-.938-.36-.41-.882-.656-.522-.254-1.192-.254-.543 0-1.066.204-.515.198-.924.565-.41.36-.67.868-.254.508-.275 1.121v5.306q0 .226-.212.226h-.374q-.226 0-.226-.226v-1.954q-.007-.021-.007-.078zM66.962 46.518q-.014-.035-.021-.063-.007-.035-.007-.064 0-.091.05-.134.049-.042.126-.077l.275-.12q.014-.007.05-.007.042-.008.056-.008.057 0 .099.064.042.063.078.155.035.085.063.19.035.1.078.177.134.29.388.508.254.212.55.353.296.134.6.204.31.064.564.064.318 0 .713-.092.402-.099.748-.303.353-.205.592-.536.24-.332.24-.812 0-.43-.211-.74-.212-.318-.544-.537-.331-.219-.748-.36-.416-.14-.825-.232-.522-.127-1.009-.34-.487-.21-.86-.507-.375-.304-.6-.692-.226-.395-.226-.882 0-.557.197-1.008.205-.452.572-.77.367-.324.882-.493.515-.177 1.143-.177.515 0 .945.134.43.127.776.367.346.24.6.586.254.338.423.755l-.007-.007q.043.063.043.105 0 .064-.057.127-.056.057-.134.106-.078.05-.155.078-.07.028-.113.028-.078 0-.12-.028-.042-.028-.078-.078-.028-.05-.063-.12-.028-.077-.078-.162-.289-.473-.79-.776-.5-.31-1.2-.31-.38 0-.733.098-.346.1-.621.304-.268.197-.43.508-.156.303-.156.712 0 .353.212.628t.522.48q.318.198.677.332.36.127.657.197.056.014.07.021h.021q.642.149 1.172.388.529.233.903.558.374.324.578.748.205.416.205.945 0 .607-.254 1.087-.254.472-.692.804-.43.325-1.001.494-.565.176-1.186.176-.522 0-1.002-.134t-.875-.395q-.388-.26-.67-.642-.282-.38-.402-.875zM75.307 44.225q.021.12.028.325.015.197.064.374.176.628.515 1.15.346.522.818.896.473.374 1.052.585.585.212 1.234.212.374 0 .699-.056.325-.057.6-.156.282-.105.529-.246.254-.142.48-.31.07-.043.14-.1.078-.063.149-.113.07-.056.127-.091.063-.043.113-.043.056 0 .127.092.12.17.17.261.056.092.056.141 0 .028-.029.057.036.035.036.07-.078.099-.19.205-.114.106-.269.211-.571.403-1.235.635-.663.233-1.446.233-.953 0-1.8-.36-.839-.366-1.474-.994-.628-.635-1.002-1.475-.367-.84-.367-1.792 0-.642.163-1.235.162-.592.458-1.107.297-.516.713-.939.423-.423.938-.727.522-.303 1.115-.465.6-.17 1.256-.17.614 0 1.185.149.579.148 1.087.43.508.282.924.691.423.41.727.925.303.515.48 1.136.176.62.197 1.326v-.007.021q.007.007.007.021 0 .24-.226.24zm2.766-3.986q-.536.141-1.002.444-.466.304-.825.72-.36.416-.607.924-.24.508-.332 1.066h7.55q-.085-.706-.424-1.306-.331-.606-.84-1.044-.507-.444-1.156-.691-.642-.254-1.348-.254-.24 0-.466.028-.225.021-.55.113zM85.409 36.86q0-.135.035-.22.042-.084.162-.098h.515q.134.014.17.106.035.084.035.211v.268q0 .205-.07.261-.064.057-.255.057h-.254q-.183 0-.26-.05-.078-.049-.078-.176zm.042 2.829q0-.226.226-.226h.374q.226 0 .226.226v8.466q0 .226-.22.226h-.366q-.24 0-.24-.226zM88.74 36.972q0-.219.226-.219h.367q.233 0 .233.22v11.19q0 .218-.226.218h-.367q-.232 0-.232-.219zM91.298 46.518q-.014-.035-.021-.063-.007-.035-.007-.064 0-.091.05-.134.049-.042.126-.077l.276-.12q.014-.007.049-.007.042-.008.056-.008.057 0 .1.064.041.063.077.155.035.085.063.19.036.1.078.177.134.29.388.508.254.212.55.353.297.134.6.204.31.064.564.064.318 0 .713-.092.402-.099.748-.303.353-.205.593-.536.24-.332.24-.812 0-.43-.212-.74-.212-.318-.544-.537-.331-.219-.747-.36-.417-.14-.826-.232-.522-.127-1.009-.34-.487-.21-.86-.507-.375-.304-.6-.692-.226-.395-.226-.882 0-.557.197-1.008.205-.452.572-.77.367-.324.882-.493.515-.177 1.143-.177.515 0 .945.134.43.127.776.367.346.24.6.586.254.338.423.755l-.007-.007q.043.063.043.105 0 .064-.057.127-.056.057-.134.106-.077.05-.155.078-.07.028-.113.028-.077 0-.12-.028-.042-.028-.077-.078-.029-.05-.064-.12-.028-.077-.078-.162-.289-.473-.79-.776-.5-.31-1.2-.31-.38 0-.733.098-.346.1-.62.304-.269.197-.431.508-.155.303-.155.712 0 .353.211.628.212.275.522.48.318.198.678.332.36.127.656.197.056.014.07.021h.022q.642.149 1.17.388.53.233.904.558.374.324.578.748.205.416.205.945 0 .607-.254 1.087-.254.472-.691.804-.43.325-1.002.494-.565.176-1.186.176-.522 0-1.002-.134t-.874-.395q-.388-.26-.67-.642-.283-.38-.403-.875zM111.926 38.912q.149.1.149.22 0 .077-.057.147l-.19.24q-.05.057-.1.092-.041.035-.098.035-.106 0-.282-.127-.614-.444-1.298-.691-.678-.254-1.419-.254-.649 0-1.241.17-.593.168-1.108.479-.508.303-.924.727-.417.423-.713.93-.296.509-.459 1.08-.162.572-.162 1.172 0 .606.17 1.192.176.579.48 1.094.31.508.733.938.423.423.924.734.501.31 1.066.487.564.169 1.157.169.36 0 .74-.07.389-.071.763-.205t.726-.325q.36-.197.657-.444.084-.064.176-.064.148 0 .261.177l.106.169q.05.085.05.176 0 .156-.142.261-.691.53-1.524.826-.832.29-1.778.29-.734 0-1.425-.191-.685-.19-1.284-.544-.593-.352-1.087-.84-.494-.493-.846-1.093-.346-.607-.544-1.298-.19-.691-.19-1.44 0-.733.19-1.418.19-.691.544-1.284.352-.6.84-1.086.493-.494 1.093-.84.607-.353 1.298-.543.691-.198 1.44-.198.91 0 1.763.304.854.296 1.545.846zM113.824 36.86q0-.135.035-.22.043-.084.163-.098h.514q.135.014.17.106.035.084.035.211v.268q0 .205-.07.261-.064.057-.254.057h-.254q-.184 0-.261-.05-.078-.049-.078-.176zm.042 2.829q0-.226.226-.226h.374q.226 0 .226.226v8.466q0 .226-.219.226h-.367q-.24 0-.24-.226zM119.957 48.042v.036q.007.028.007.07V48.296q0 .064-.05.1-.049.041-.12.063-.07.02-.148.02-.07.008-.113.008-.38 0-.726-.099-.339-.092-.6-.303-.261-.212-.416-.55-.149-.34-.149-.82v-6.518h-1.22q-.12 0-.177-.05-.056-.05-.056-.17v-.33q0-.12.056-.163.057-.042.177-.042h1.22v-2.223q0-.07.057-.113.028-.02.063-.035-.007 0 .05-.021.056-.028.134-.057.077-.028.155-.049.085-.028.127-.028.141 0 .183.07.05.07.05.19v2.266h1.58q.233 0 .233.225v.283q0 .247-.233.247h-1.58v5.962q0 .31.021.585.028.275.106.487.078.205.219.332.148.12.395.12h.162q.212 0 .325.028.12.02.176.07.063.043.078.12.014.07.014.163zM120.839 43.929q0-.635.162-1.228.17-.592.473-1.107.303-.516.727-.939.423-.423.938-.727.515-.303 1.1-.465.593-.17 1.228-.17t1.221.17q.593.162 1.108.465.515.304.938.727.43.423.734.939.303.515.466 1.107.169.593.169 1.228t-.17 1.228q-.162.592-.465 1.107-.304.515-.734.939-.423.423-.938.726-.515.304-1.108.466-.586.17-1.22.17-.636 0-1.228-.17-.586-.162-1.101-.466-.515-.303-.938-.726-.424-.424-.727-.939-.303-.515-.473-1.107-.162-.593-.162-1.228zm.847 0q0 .515.134 1.002.134.48.374.91.247.423.585.783.346.353.762.607.424.254.896.395.48.141 1.002.141.783 0 1.475-.296.698-.304 1.22-.819.522-.522.826-1.213.303-.699.303-1.496 0-.776-.296-1.475-.296-.705-.811-1.234-.508-.53-1.2-.84-.684-.317-1.467-.317-.784 0-1.482.31-.692.303-1.207.833-.515.529-.818 1.227-.296.699-.296 1.482zM133.748 50.907q-.057.141-.198.17-.134.034-.282.034-.219 0-.318-.042-.098-.042-.098-.19 0-.036.007-.07.007-.036.014-.05l1.086-2.73-3.415-8.228q-.028-.028-.028-.148 0-.148.12-.176.12-.035.346-.035.141 0 .268.028.127.028.176.148l.17.41q.197.479.43 1.058.233.578.48 1.199.254.62.515 1.263.261.635.508 1.249.254.607.48 1.164.225.55.416 1.002.198-.48.437-1.066.24-.585.501-1.227.261-.642.53-1.313.275-.67.536-1.319.26-.656.508-1.263.247-.614.458-1.129.078-.204.276-.204h.388q.26 0 .26.225 0 .036-.013.078-.015.042-.015.056zM139.634 44.225q.021.12.028.325.014.197.064.374.176.628.515 1.15.346.522.818.896.473.374 1.052.585.585.212 1.234.212.374 0 .699-.056.324-.057.6-.156.282-.105.529-.246.254-.142.48-.31.07-.043.14-.1.078-.063.149-.113.07-.056.127-.091.063-.043.113-.043.056 0 .127.092.12.17.169.261.056.092.056.141 0 .028-.028.057.035.035.035.07-.077.099-.19.205-.113.106-.268.211-.572.403-1.235.635-.663.233-1.446.233-.953 0-1.8-.36-.84-.366-1.474-.994-.628-.635-1.002-1.475-.367-.84-.367-1.792 0-.642.162-1.235.163-.592.459-1.107.296-.516.713-.939.423-.423.938-.727.522-.303 1.115-.465.6-.17 1.256-.17.613 0 1.185.149.579.148 1.087.43.508.282.924.691.423.41.727.925.303.515.48 1.136.176.62.197 1.326v-.007.021q.007.007.007.021 0 .24-.226.24zm2.766-3.986q-.536.141-1.002.444-.466.304-.826.72-.36.416-.606.924-.24.508-.332 1.066h7.55q-.085-.706-.424-1.306-.331-.606-.84-1.044-.507-.444-1.157-.691-.642-.254-1.347-.254-.24 0-.466.028-.226.021-.55.113zM150.046 39.724q0-.127.07-.19.078-.071.198-.071h.29q.126 0 .19.077.07.07.07.184v1.037q.304-.459.685-.748.38-.296.783-.459.402-.169.79-.225.395-.064.727-.064.811 0 1.482.297.67.296 1.143.81.472.516.733 1.2.261.685.261 1.46v5.039q0 .155-.077.232-.078.078-.205.078h-.26q-.163 0-.22-.07-.056-.071-.056-.233v-5.066q-.021-.55-.219-1.073-.197-.529-.557-.938-.36-.41-.882-.656-.522-.254-1.192-.254-.544 0-1.066.204-.515.198-.924.565-.41.36-.67.868-.254.508-.276 1.121v5.306q0 .226-.211.226h-.374q-.226 0-.226-.226v-1.954q-.007-.021-.007-.078zM158.96 46.518q-.014-.035-.021-.063-.007-.035-.007-.064 0-.091.049-.134.05-.042.127-.077l.275-.12q.014-.007.05-.007.042-.008.056-.008.056 0 .099.064.042.063.077.155.036.085.064.19.035.1.078.177.134.29.388.508.254.212.55.353.296.134.6.204.31.064.564.064.318 0 .713-.092.402-.099.748-.303.352-.205.592-.536.24-.332.24-.812 0-.43-.212-.74-.211-.318-.543-.537-.331-.219-.748-.36-.416-.14-.825-.232-.522-.127-1.01-.34-.486-.21-.86-.507-.374-.304-.6-.692-.225-.395-.225-.882 0-.557.197-1.008.205-.452.572-.77.367-.324.882-.493.515-.177 1.143-.177.515 0 .945.134.43.127.776.367.346.24.6.586.254.338.423.755l-.007-.007q.042.063.042.105 0 .064-.056.127-.056.057-.134.106-.078.05-.155.078-.07.028-.113.028-.078 0-.12-.028-.042-.028-.078-.078-.028-.05-.063-.12-.028-.077-.078-.162-.289-.473-.79-.776-.5-.31-1.2-.31-.38 0-.733.098-.346.1-.621.304-.268.197-.43.508-.156.303-.156.712 0 .353.212.628t.522.48q.318.198.677.332.36.127.657.197.056.014.07.021h.021q.642.149 1.172.388.529.233.903.558.374.324.578.748.205.416.205.945 0 .607-.254 1.087-.254.472-.692.804-.43.325-1.001.494-.565.176-1.186.176-.522 0-1.002-.134t-.875-.395q-.388-.26-.67-.642-.282-.38-.402-.875z" style="font-style:normal;font-variant:normal;font-weight:400;font-stretch:normal;font-size:14.1111px;font-family:COCOGOOSE;-inkscape-font-specification:'COCOGOOSE Normal';font-variant-ligatures:normal;font-variant-caps:normal;font-variant-numeric:normal;font-variant-east-asian:normal;stroke-width:.264583" transform="translate(-36.571 -29.663)"/></g><g aria-label="Centre Brou Baudières" style="font-style:normal;font-variant:normal;font-weight:400;font-stretch:normal;font-size:10.5833px;line-height:1.25;font-family:Molle;-inkscape-font-specification:'Molle Normal';font-variant-ligatures:normal;font-variant-caps:normal;font-variant-numeric:normal;font-variant-east-asian:normal;fill:#000;fill-opacity:1;stroke:none;stroke-width:.264583"><path d="M42.674 53.755q.279-.336.279-.62 0-.212-.15-.305-.145-.098-.475-.098-.331 0-.806.17-.476.166-.915.455-.434.29-.817.683-.377.387-.656.837-.6.966-.6 1.886 0 .925.647 1.53.749.702 1.958.702 1.24 0 2.186-.744.382-.305.662-.734.232-.015.232.192 0 .082-.052.201-.413.977-1.328 1.654-1.359 1.002-3.043 1.002-1.044 0-1.845-.45-.863-.48-1.204-1.441-.176-.496-.176-1.065 0-.568.15-1.07.15-.5.418-.976.274-.475.646-.91.372-.434.817-.81.45-.383.946-.688.5-.31 1.028-.527 1.1-.465 2.093-.465 1.007 0 1.37.568.128.196.128.445 0 .248-.077.428-.078.176-.197.305-.248.27-.47.27-.206 0-.625-.316-.093-.073-.124-.109z" style="font-style:normal;font-variant:normal;font-weight:400;font-stretch:normal;font-size:10.5833px;font-family:Molle;-inkscape-font-specification:'Molle Normal';font-variant-ligatures:normal;font-variant-caps:normal;font-variant-numeric:normal;font-variant-east-asian:normal;stroke-width:.264583" transform="translate(-36.571 -29.663)"/><path d="M45.304 58.256q.3.538 1.36.538.66 0 1.245-.32.589-.326 1.007-.957.233-.015.233.192 0 .232-.28.671-.273.434-.516.703-.238.269-.537.501-.295.228-.636.393-.739.362-1.555.362-1.644 0-2.135-.91-.175-.33-.175-.754 0-.429.144-.786.15-.356.409-.677.258-.325.615-.599.356-.274.775-.47.889-.43 1.814-.43.666 0 .914.42.088.144.088.387 0 .238-.124.47-.119.233-.325.424-.207.186-.481.33-.274.14-.584.244-.548.186-1.256.268zm-.072-.48q.661-.078 1.137-.367.501-.31.501-.724 0-.418-.382-.418-.496 0-.863.475-.352.455-.393 1.034z" style="font-style:normal;font-variant:normal;font-weight:400;font-stretch:normal;font-size:10.5833px;font-family:Molle;-inkscape-font-specification:'Molle Normal';font-variant-ligatures:normal;font-variant-caps:normal;font-variant-numeric:normal;font-variant-east-asian:normal;stroke-width:.264583" transform="translate(-36.571 -29.663)"/><path d="M49.934 60.09q0 .208-.346.208-.858 0-1.22-.683-.134-.242-.134-.578 0-.336.098-.667.099-.336.264-.661.165-.326.382-.63.217-.306.46-.564.512-.548.972-.77.124-.057.222-.057.103 0 .17.005.171.016.254.13-.315.666-.517 1.219.92-.904 2.14-1.235.397-.109.692-.109.3 0 .346.114.047.109.047.202 0 .093-.026.253-.026.155-.135.434-.108.279-.222.563-.29.724-.29.987 0 .455.326.455.559 0 1.23-.734.197-.212.357-.455.232-.015.232.192 0 .165-.211.547-.212.378-.409.657-.19.274-.434.537-.243.264-.532.476-.63.46-1.23.46t-.91-.316q-.31-.315-.31-.92 0-.894.93-2.139.285-.377.249-.377-.393 0-1.106.496-.708.496-1.08 1.054-.238.966-.259 1.907z" style="font-style:normal;font-variant:normal;font-weight:400;font-stretch:normal;font-size:10.5833px;font-family:Molle;-inkscape-font-specification:'Molle Normal';font-variant-ligatures:normal;font-variant-caps:normal;font-variant-numeric:normal;font-variant-east-asian:normal;stroke-width:.264583" transform="translate(-36.571 -29.663)"/><path d="M56.14 60.292q-1.648 0-1.648-1.4 0-.977 1.297-2.708-.129-.041-.237-.072-.109-.031-.176-.052-.067-.026-.083-.077-.015-.052-.01-.12.02-.154.072-.247l.78.129q.915-1.111 1.577-1.525.201-.124.284-.124.083 0 .145.026.067.02.134.057.145.078.227.18-.697.683-1.307 1.567 1.183.206 1.447.222-.14.553-.32.553-.445 0-1.463-.243-.512.853-.512 1.416 0 .775 1.044.775 1.168 0 1.923-1.132.232-.015.232.192 0 .18-.217.542-.217.357-.434.62-.217.264-.501.522-.284.253-.63.455-.755.444-1.623.444z" style="font-style:normal;font-variant:normal;font-weight:400;font-stretch:normal;font-size:10.5833px;font-family:Molle;-inkscape-font-specification:'Molle Normal';font-variant-ligatures:normal;font-variant-caps:normal;font-variant-numeric:normal;font-variant-east-asian:normal;stroke-width:.264583" transform="translate(-36.571 -29.663)"/><path d="M61.138 57.187q-.62-.031-1.054-.13-.533.925-1.044 1.649-.067.108-.305.057-.424-.093-.486-.217.92-.646 1.292-1.66-.543-.247-.543-.702 0-.279.367-.713.347-.424.512-.424.506 0 .77.259.103.098.103.263 0 .16-.175.543.795.387 2.005.455-.037.356-.3.578-.072.067-.145.067-.367.331-.517.719-.046.124-.046.237 0 .481.574.481.387 0 .857-.346.419-.315.734-.786.233-.015.233.192 0 .175-.217.537-.212.362-.414.625-.201.264-.45.517-.247.253-.526.455-.626.444-1.225.444-1.018 0-1.364-.63-.12-.212-.12-.491 0-.284.114-.558.12-.274.32-.533.414-.537 1.05-.888z" style="font-style:normal;font-variant:normal;font-weight:400;font-stretch:normal;font-size:10.5833px;font-family:Molle;-inkscape-font-specification:'Molle Normal';font-variant-ligatures:normal;font-variant-caps:normal;font-variant-numeric:normal;font-variant-east-asian:normal;stroke-width:.264583" transform="translate(-36.571 -29.663)"/><path d="M65.045 58.256q.3.538 1.359.538.661 0 1.245-.32.59-.326 1.008-.957.232-.015.232.192 0 .232-.279.671-.274.434-.517.703-.237.269-.537.501-.295.228-.636.393-.739.362-1.555.362-1.643 0-2.134-.91-.176-.33-.176-.754 0-.429.145-.786.15-.356.408-.677.258-.325.615-.599.356-.274.775-.47.889-.43 1.814-.43.667 0 .915.42.087.144.087.387 0 .238-.124.47-.118.233-.325.424-.207.186-.48.33-.275.14-.585.244-.547.186-1.255.268zm-.073-.48q.662-.078 1.137-.367.501-.31.501-.724 0-.418-.382-.418-.496 0-.863.475-.351.455-.393 1.034zM78.997 56.127q1.282.6 1.282 1.731 0 1.013-.796 1.68-1.06.889-2.889.889-1.359 0-2.516-.517-1.132-.506-1.726-1.41-.43-.657-.43-1.076 0-.16.414-.274.419.59 1.488 1.008.326-.434.879-1.235.553-.8.863-1.245.31-.45.62-.863.687-.915 1.194-1.385.155-.155.47-.01.083.036.134.082-.429.434-1.157 1.726.475.114.832.114.356 0 .708-.078.351-.082.64-.237.667-.347.667-.853 0-.987-1.504-1.36-.589-.149-1.178-.149-.584 0-1.1.083-.517.077-.92.248-.89.377-.89 1.07 0 .583.435.981-.47.501-.75.501-.32 0-.599-.346-.284-.356-.284-.78 0-.424.176-.744.18-.32.485-.569.305-.253.703-.439.403-.186.853-.31.873-.243 1.57-.243.698 0 1.163.062.47.057.894.181.424.124.786.31.362.186.63.44.564.537.564 1.286 0 .6-.502 1.075-.45.44-1.209.656zm-3.979 2.377q.605.12.977.12t.63-.016q.259-.02.558-.104.305-.082.522-.232.476-.32.476-.879 0-.542-.553-.888-.507-.316-1.308-.347l-.34.641q-.171.32-.337.625-.351.641-.625 1.08zM83.42 57.187q-.62-.031-1.054-.13-.532.925-1.043 1.649-.068.108-.305.057-.424-.093-.486-.217.92-.646 1.292-1.66-.543-.247-.543-.702 0-.279.367-.713.346-.424.512-.424.506 0 .77.259.103.098.103.263 0 .16-.176.543.796.387 2.005.455-.036.356-.3.578-.072.067-.144.067-.367.331-.517.719-.046.124-.046.237 0 .481.573.481.388 0 .858-.346.419-.315.734-.786.233-.015.233.192 0 .175-.218.537-.211.362-.413.625-.201.264-.45.517-.248.253-.527.455-.625.444-1.224.444-1.018 0-1.365-.63-.118-.212-.118-.491 0-.284.113-.558.12-.274.32-.533.414-.537 1.05-.888z" style="font-style:normal;font-variant:normal;font-weight:400;font-stretch:normal;font-size:10.5833px;font-family:Molle;-inkscape-font-specification:'Molle Normal';font-variant-ligatures:normal;font-variant-caps:normal;font-variant-numeric:normal;font-variant-east-asian:normal;stroke-width:.264583" transform="translate(-36.571 -29.663)"/><path d="m87.028 60.313-.104.005q-.816 0-1.245-.403-.403-.377-.403-1.023 0-.889.708-1.7.687-.786 1.669-1.1-.031-.233.17-.383.145-.109.476-.109.336 0 .646.062t.625.274q.682.45.682 1.21 0 .821-.408 1.56.889-.191 1.555-1.189.233-.015.233.192 0 .082-.052.201-.702 1.67-2.81 2.212-.755.196-1.716.196zm-.088-2.263q0 .6.501.6.424 0 .853-.513.45-.532.45-1.08 0-.558-.538-.739-.925.259-1.184 1.158-.082.274-.082.574z" style="font-style:normal;font-variant:normal;font-weight:400;font-stretch:normal;font-size:10.5833px;font-family:Molle;-inkscape-font-specification:'Molle Normal';font-variant-ligatures:normal;font-variant-caps:normal;font-variant-numeric:normal;font-variant-east-asian:normal;stroke-width:.264583" transform="translate(-36.571 -29.663)"/><path d="M95.456 58.029q0 .62.44.62.382 0 .852-.346.419-.315.734-.786.232-.015.232.192 0 .175-.217.537-.212.362-.413.625-.202.264-.45.517t-.527.455q-.625.444-1.22.444-.899 0-1.198-.64-.569.423-1.2.583-.216.057-.485.057-.263 0-.527-.093-.258-.098-.444-.279-.383-.372-.383-1.023 0-.729.496-1.53.414-.666 1.054-1.178.59-.465.951-.465.197 0 .445.31-.507.357-.874.91-.408.615-.408 1.11 0 .6.501.6.497 0 .78-.17.202-.807.905-1.664.698-.853 1.276-1.07.186-.067.507.176.077.056.119.098-.44.377-.713 1.023-.233.548-.233.987zM107.812 56.127q1.281.6 1.281 1.731 0 1.013-.795 1.68-1.06.889-2.89.889-1.358 0-2.516-.517-1.131-.506-1.726-1.41-.429-.657-.429-1.076 0-.16.414-.274.418.59 1.488 1.008.326-.434.879-1.235.552-.8.863-1.245.31-.45.62-.863.687-.915 1.193-1.385.155-.155.47-.01.083.036.135.082-.429.434-1.158 1.726.476.114.832.114.357 0 .708-.078.352-.082.641-.237.667-.347.667-.853 0-.987-1.504-1.36-.59-.149-1.178-.149-.584 0-1.1.083-.518.077-.92.248-.89.377-.89 1.07 0 .583.435.981-.47.501-.75.501-.32 0-.6-.346-.283-.356-.283-.78 0-.424.175-.744.181-.32.486-.569.305-.253.703-.439.403-.186.852-.31.874-.243 1.571-.243.698 0 1.163.062.47.057.894.181.424.124.786.31.361.186.63.44.563.537.563 1.286 0 .6-.5 1.075-.45.44-1.21.656zm-3.98 2.377q.605.12.977.12.373 0 .63-.016.26-.02.559-.104.305-.082.522-.232.475-.32.475-.879 0-.542-.553-.888-.506-.316-1.307-.347l-.341.641q-.17.32-.336.625-.351.641-.625 1.08zM112.809 59.46q-.708.827-1.726.827-.646 0-1.034-.387-.382-.383-.382-1.008 0-.79.62-1.535.6-.723 1.571-1.178 1.008-.47 2.083-.47.408 0 .584.129.14-.165.248-.191.113-.031.175-.031.197 0 .419.057-.02.067-.088.232-.067.16-.15.382-.082.223-.175.486-.336.94-.336 1.411 0 .465.294.465.383 0 .853-.346.418-.315.734-.786.232-.015.232.192 0 .175-.217.537-.212.362-.413.625-.202.264-.45.517t-.527.455q-.625.444-1.22.444-.754 0-1.012-.455-.083-.14-.083-.242v-.13zm-1.478-1.41q0 .6.501.6.553 0 1.303-.895.397-.475.692-.91l.455-.66q-1.292.01-2.145.588-.806.548-.806 1.277z" style="font-style:normal;font-variant:normal;font-weight:400;font-stretch:normal;font-size:10.5833px;font-family:Molle;-inkscape-font-specification:'Molle Normal';font-variant-ligatures:normal;font-variant-caps:normal;font-variant-numeric:normal;font-variant-east-asian:normal;stroke-width:.264583" transform="translate(-36.571 -29.663)"/><path d="M120.55 58.029q0 .62.44.62.382 0 .852-.346.419-.315.734-.786.232-.015.232.192 0 .175-.217.537-.212.362-.413.625-.202.264-.45.517t-.527.455q-.625.444-1.22.444-.899 0-1.198-.64-.569.423-1.2.583-.216.057-.485.057-.263 0-.527-.093-.258-.098-.444-.279-.383-.372-.383-1.023 0-.729.496-1.53.414-.666 1.054-1.178.59-.465.951-.465.197 0 .445.31-.507.357-.874.91-.408.615-.408 1.11 0 .6.501.6.496 0 .78-.17.202-.807.905-1.664.698-.853 1.276-1.07.186-.067.507.176.077.056.119.098-.44.377-.713 1.023-.233.548-.233.987z" style="font-style:normal;font-variant:normal;font-weight:400;font-stretch:normal;font-size:10.5833px;font-family:Molle;-inkscape-font-specification:'Molle Normal';font-variant-ligatures:normal;font-variant-caps:normal;font-variant-numeric:normal;font-variant-east-asian:normal;stroke-width:.264583" transform="translate(-36.571 -29.663)"/><path d="M127.17 58.65q.382 0 .852-.347.419-.315.734-.786.238-.02.228.202-.005.176-.217.532-.207.357-.409.62-.201.264-.45.517-.247.253-.526.455-.626.444-1.22.444-.76 0-1.013-.455-.088-.155-.082-.372-.44.533-1.251.745-.274.072-.59.072-.314 0-.578-.098-.258-.104-.444-.285-.383-.377-.383-1.007 0-.713.605-1.463.594-.744 1.524-1.22.993-.5 2.026-.5.46 0 .408.408-1.188 0-2.072.64-.387.285-.61.626-.217.34-.217.661 0 .6.507.6.728 0 1.467-.91.259-.32.6-.894l.563-.94.45-.744q.232-.383.444-.729.522-.853.646-1.023.186-.259.44-.259.294 0 .428.212-.568.894-1.06 1.897-.49 1.002-.681 1.462-.434 1.044-.434 1.494 0 .444.315.444z" style="font-style:normal;font-variant:normal;font-weight:400;font-stretch:normal;font-size:10.5833px;font-family:Molle;-inkscape-font-specification:'Molle Normal';font-variant-ligatures:normal;font-variant-caps:normal;font-variant-numeric:normal;font-variant-east-asian:normal;stroke-width:.264583" transform="translate(-36.571 -29.663)"/><path d="M132.146 54.587q-.212.104-.46.16-.243.052-.423.052-.181 0-.326-.041-.145-.047-.258-.13-.248-.18-.248-.433 0-.254.087-.43.093-.175.264-.3.367-.268.879-.268.516 0 .749.212.238.212.238.486t-.145.429q-.145.155-.357.263zm-3.979 5.1q-.108-.232-.108-.568 0-.34.144-.718.15-.377.378-.75.232-.377.516-.723.285-.351.564-.62.615-.584.904-.584.124 0 .274.109.155.103.196.155-.78.837-.987 1.617-.067.238-.067.465 0 .223.17.403.171.176.424.176t.47-.093q.223-.098.435-.253.418-.315.733-.786.233-.015.233.192 0 .17-.217.537-.212.367-.424.636-.212.263-.486.522-.268.258-.589.46-.718.454-1.478.454-.8 0-1.085-.63z" style="font-style:normal;font-variant:normal;font-weight:400;font-stretch:normal;font-size:10.5833px;font-family:Molle;-inkscape-font-specification:'Molle Normal';font-variant-ligatures:normal;font-variant-caps:normal;font-variant-numeric:normal;font-variant-east-asian:normal;stroke-width:.264583" transform="translate(-36.571 -29.663)"/><path d="M131.536 60.287zm1.99-2.03q.3.537 1.36.537.66 0 1.244-.32.59-.326 1.008-.957.233-.015.233.192 0 .232-.28.671-.273.434-.516.703-.238.269-.538.501-.294.228-.635.393-.74.362-1.556.362-1.643 0-2.134-.91-.176-.33-.176-.754 0-.429.145-.786.15-.356.408-.677.259-.325.615-.599.357-.274.775-.47.89-.43 1.814-.43.667 0 .915.42.088.144.088.387 0 .238-.124.47-.119.233-.326.424-.206.186-.48.33-.274.14-.584.244-.548.186-1.256.268zm-.072-.481q.661-.078 1.136-.367.502-.31.502-.724 0-.418-.383-.418-.496 0-.863.475-.351.455-.392 1.034zm2.025-2.946q-.124.078-.212.078-.082 0-.253-.073-.165-.072-.34-.19-.171-.125-.337-.28-.165-.16-.294-.33-.28-.388-.28-.683 0-.191.3-.413.28-.207.47-.207.202.605.73 1.385.247.372.397.475-.057.156-.18.238z" style="font-style:normal;font-variant:normal;font-weight:400;font-stretch:normal;font-size:10.5833px;font-family:Molle;-inkscape-font-specification:'Molle Normal';font-variant-ligatures:normal;font-variant-caps:normal;font-variant-numeric:normal;font-variant-east-asian:normal;stroke-width:.264583" transform="translate(-36.571 -29.663)"/><path d="M138.962 57.187q-.62-.031-1.054-.13-.532.925-1.044 1.649-.067.108-.305.057-.423-.093-.485-.217.92-.646 1.292-1.66-.543-.247-.543-.702 0-.279.367-.713.346-.424.511-.424.507 0 .77.259.104.098.104.263 0 .16-.176.543.796.387 2.005.455-.036.356-.3.578-.072.067-.144.067-.367.331-.517.719-.047.124-.047.237 0 .481.574.481.388 0 .858-.346.418-.315.734-.786.232-.015.232.192 0 .175-.217.537-.212.362-.413.625-.202.264-.45.517t-.527.455q-.625.444-1.225.444-1.018 0-1.364-.63-.119-.212-.119-.491 0-.284.114-.558.119-.274.32-.533.414-.537 1.05-.888z" style="font-style:normal;font-variant:normal;font-weight:400;font-stretch:normal;font-size:10.5833px;font-family:Molle;-inkscape-font-specification:'Molle Normal';font-variant-ligatures:normal;font-variant-caps:normal;font-variant-numeric:normal;font-variant-east-asian:normal;stroke-width:.264583" transform="translate(-36.571 -29.663)"/><path d="M142.869 58.256q.3.538 1.36.538.66 0 1.245-.32.589-.326 1.007-.957.233-.015.233.192 0 .232-.28.671-.273.434-.516.703-.238.269-.537.501-.295.228-.636.393-.74.362-1.556.362-1.643 0-2.134-.91-.175-.33-.175-.754 0-.429.144-.786.15-.356.408-.677.259-.325.615-.599.357-.274.776-.47.888-.43 1.813-.43.667 0 .915.42.088.144.088.387 0 .238-.124.47-.119.233-.326.424-.206.186-.48.33-.274.14-.584.244-.548.186-1.256.268zm-.072-.48q.661-.078 1.137-.367.5-.31.5-.724 0-.418-.382-.418-.496 0-.863.475-.35.455-.392 1.034z" style="font-style:normal;font-variant:normal;font-weight:400;font-stretch:normal;font-size:10.5833px;font-family:Molle;-inkscape-font-specification:'Molle Normal';font-variant-ligatures:normal;font-variant-caps:normal;font-variant-numeric:normal;font-variant-east-asian:normal;stroke-width:.264583" transform="translate(-36.571 -29.663)"/><path d="M150.207 56.019q-.284-.02-.553.01v.18q0 .13.036.389.037.258.088.568.145.878.145 1.189 0 .31-.041.506.78-.196 1.431-.9.196-.211.351-.444.15-.01.192.057.041.062.041.135 0 .072-.119.35-.119.28-.455.704-.33.423-.826.765-1.122.77-2.698.78-.145.01-.419.01-.273 0-.604-.15-.33-.155-.563-.418-.481-.543-.481-1.39 0-.352.532-.791.15-.124.3-.217.517-.775 1.468-1.344.956-.568 1.788-.568.3 0 .413.165.124.176-.026.414zm-2.6 2.403q.114.088.254.088t.274-.109q.134-.108.243-.29.113-.18.196-.418.088-.238.155-.496.114-.434.227-1.028-.873.268-1.545.852-.201.181-.351.367.18.744.548 1.034z" style="font-style:normal;font-variant:normal;font-weight:400;font-stretch:normal;font-size:10.5833px;font-family:Molle;-inkscape-font-specification:'Molle Normal';font-variant-ligatures:normal;font-variant-caps:normal;font-variant-numeric:normal;font-variant-east-asian:normal;stroke-width:.264583" transform="translate(-36.571 -29.663)"/></g><text y="76.167" x="37.41" style="font-style:normal;font-variant:normal;font-weight:400;font-stretch:normal;font-size:4.93889px;line-height:1.25;font-family:COCOGOOSE;-inkscape-font-specification:'COCOGOOSE Normal';font-variant-ligatures:normal;font-variant-caps:normal;font-variant-numeric:normal;font-variant-east-asian:normal;fill:#000;fill-opacity:1;stroke:none;stroke-width:.264583" xml:space="preserve" transform="translate(-36.571 -36.542)"><tspan style="font-style:normal;font-variant:normal;font-weight:400;font-stretch:normal;font-size:4.93889px;font-family:COCOGOOSE;-inkscape-font-specification:'COCOGOOSE Normal';font-variant-ligatures:normal;font-variant-caps:normal;font-variant-numeric:normal;font-variant-east-asian:normal;stroke-width:.264583" y="76.167" x="37.41">Bourg-en-Bresse</tspan></text></svg>
